<?xml version="1.0" encoding="UTF-8"?>
<!DOCTYPE svg PUBLIC "-//W3C//DTD SVG 1.1//EN" "http://www.w3.org/Graphics/SVG/1.1/DTD/svg11.dtd">
<!-- Creator: CorelDRAW 2019 (64-Bit) -->
<svg xmlns="http://www.w3.org/2000/svg" xml:space="preserve" width="350px" height="150px" version="1.1" style="shape-rendering:geometricPrecision; text-rendering:geometricPrecision; image-rendering:optimizeQuality; fill-rule:evenodd; clip-rule:evenodd"
viewBox="0 0 1743 1080.26"
 xmlns:xlink="http://www.w3.org/1999/xlink"
 xmlns:xodm="http://www.corel.com/coreldraw/odm/2003">
 <defs>
  <style type="text/css">
    <![CDATA[
    .fil1 {fill:white}
    .fil0 {fill:white}
    .fil2 {fill:white;fill-rule:nonzero}
   ]]>

   <!-- <![CDATA[
    .fil1 {fill:#2E3192}
    .fil0 {fill:#F6821F}
    .fil2 {fill:#2E3192;fill-rule:nonzero}
   ]]> -->
  </style>
 </defs>
 <g id="Layer_x0020_1">
  <metadata id="CorelCorpID_0Corel-Layer"/>
  <path class="fil0" d="M860.35 267.12c376.74,-154.16 709.39,-269.88 882.65,-267.07 -53.64,133.87 -107.29,267.74 -160.94,401.61 -420.4,7.56 -805.51,46.9 -1167.81,106.76 263.63,-107.85 641.1,-220.6 1052.89,-240.21l-36.23 100.49 236.03 -178.85 -111.22 -133.11 -45.64 102.8c-126.98,1.03 -420,52.8 -649.73,107.58z"/>
  <path class="fil1" d="M0 711.04c395.57,-165.76 984.58,-220.6 1540.66,-206.98l-43.57 174.3c-429.54,-70.75 -1096.03,-50.21 -1497.09,32.68z"/>
  <path class="fil2" d="M237.37 1067.42l0 -43.67 14.14 0c5.36,0 8.86,0.23 10.49,0.66 2.5,0.66 4.6,2.08 6.29,4.27 1.69,2.2 2.53,5.04 2.53,8.51 0,2.68 -0.49,4.94 -1.46,6.76 -0.98,1.83 -2.21,3.26 -3.71,4.31 -1.5,1.03 -3.02,1.73 -4.57,2.06 -2.1,0.42 -5.15,0.63 -9.15,0.63l-5.74 0 0 16.47 -8.82 0zm8.82 -36.27l0 12.38 4.82 0c3.47,0 5.8,-0.22 6.97,-0.68 1.17,-0.46 2.08,-1.17 2.76,-2.15 0.66,-0.97 0.99,-2.1 0.99,-3.39 0,-1.59 -0.47,-2.9 -1.4,-3.94 -0.93,-1.03 -2.12,-1.68 -3.54,-1.93 -1.06,-0.2 -3.17,-0.29 -6.34,-0.29l-4.26 0zm40.34 36.27l0 -36.27 -12.96 0 0 -7.4 34.7 0 0 7.4 -12.92 0 0 36.27 -8.82 0zm19.26 0l0 -8.37 8.36 0 0 8.37 -8.36 0zm15.76 0l0 -43.67 8.82 0 0 19.39 17.81 -19.39 11.86 0 -16.45 17.01 17.34 26.66 -11.41 0 -12 -20.5 -7.15 7.31 0 13.19 -8.82 0zm42.59 0l0 -43.67 32.37 0 0 7.4 -23.56 0 0 9.67 21.92 0 0 7.36 -21.92 0 0 11.88 24.39 0 0 7.36 -33.2 0zm39.35 0l0 -43.67 18.57 0c4.66,0 8.05,0.4 10.16,1.18 2.12,0.79 3.82,2.18 5.09,4.18 1.27,2.01 1.9,4.3 1.9,6.88 0,3.28 -0.97,5.99 -2.89,8.13 -1.92,2.12 -4.81,3.48 -8.64,4.03 1.91,1.11 3.49,2.33 4.73,3.67 1.24,1.33 2.9,3.69 5.01,7.08l5.34 8.52 -10.55 0 -6.37 -9.5c-2.27,-3.4 -3.81,-5.53 -4.65,-6.42 -0.83,-0.88 -1.72,-1.48 -2.65,-1.82 -0.94,-0.32 -2.41,-0.49 -4.44,-0.49l-1.78 0 0 18.23 -8.83 0zm8.83 -25.2l6.51 0c4.23,0 6.88,-0.18 7.93,-0.53 1.05,-0.36 1.88,-0.98 2.48,-1.85 0.58,-0.88 0.89,-1.96 0.89,-3.28 0,-1.47 -0.4,-2.65 -1.18,-3.55 -0.78,-0.91 -1.89,-1.48 -3.32,-1.72 -0.72,-0.09 -2.86,-0.14 -6.44,-0.14l-6.87 0 0 11.07zm33.85 25.2l0 -43.67 32.37 0 0 7.4 -23.56 0 0 9.67 21.93 0 0 7.36 -21.93 0 0 11.88 24.4 0 0 7.36 -33.21 0zm49.15 0l0 -36.27 -12.95 0 0 -7.4 34.7 0 0 7.4 -12.92 0 0 36.27 -8.83 0zm60.94 0l-9.6 0 -3.81 -9.92 -17.46 0 -3.6 9.92 -9.35 0 17.01 -43.67 9.32 0 17.49 43.67zm-16.24 -17.27l-6.02 -16.21 -5.89 16.21 11.91 0zm71.35 17.27l-9.59 0 -3.82 -9.92 -17.45 0 -3.6 9.92 -9.36 0 17.01 -43.67 9.33 0 17.48 43.67zm-16.23 -17.27l-6.02 -16.21 -5.9 16.21 11.92 0zm19.55 17.27l0 -43.67 14.15 0c5.35,0 8.85,0.23 10.48,0.66 2.5,0.66 4.6,2.08 6.29,4.27 1.69,2.2 2.53,5.04 2.53,8.51 0,2.68 -0.48,4.94 -1.46,6.76 -0.98,1.83 -2.21,3.26 -3.71,4.31 -1.5,1.03 -3.02,1.73 -4.57,2.06 -2.1,0.42 -5.15,0.63 -9.15,0.63l-5.74 0 0 16.47 -8.82 0zm8.82 -36.27l0 12.38 4.82 0c3.47,0 5.8,-0.22 6.97,-0.68 1.17,-0.46 2.09,-1.17 2.76,-2.15 0.66,-0.97 1,-2.1 1,-3.39 0,-1.59 -0.47,-2.9 -1.41,-3.94 -0.92,-1.03 -2.11,-1.68 -3.54,-1.93 -1.05,-0.2 -3.17,-0.29 -6.34,-0.29l-4.26 0zm30.24 36.27l0 -43.67 8.82 0 0 43.67 -8.82 0zm32.54 0l0 -43.67 8.82 0 0 43.67 -8.82 0zm15.95 0l0 -43.67 8.58 0 17.88 29.16 0 -29.16 8.19 0 0 43.67 -8.85 0 -17.6 -28.48 0 28.48 -8.2 0zm42.59 -43.67l16.11 0c3.63,0 6.4,0.28 8.31,0.84 2.56,0.75 4.76,2.09 6.58,4.02 1.83,1.93 3.22,4.28 4.18,7.07 0.94,2.8 1.42,6.23 1.42,10.33 0,3.59 -0.45,6.69 -1.34,9.29 -1.09,3.18 -2.65,5.75 -4.68,7.71 -1.52,1.5 -3.59,2.65 -6.19,3.49 -1.94,0.62 -4.55,0.92 -7.81,0.92l-16.58 0 0 -43.67zm8.81 7.4l0 28.91 6.58 0c2.46,0 4.24,-0.13 5.34,-0.42 1.42,-0.35 2.61,-0.95 3.56,-1.8 0.94,-0.86 1.71,-2.27 2.31,-4.22 0.58,-1.96 0.89,-4.63 0.89,-8.01 0,-3.37 -0.31,-5.95 -0.89,-7.76 -0.6,-1.82 -1.44,-3.23 -2.51,-4.23 -1.07,-1.02 -2.44,-1.7 -4.08,-2.06 -1.23,-0.28 -3.64,-0.41 -7.24,-0.41l-3.96 0zm32.13 14.71c0,-4.46 0.66,-8.19 1.99,-11.21 1,-2.21 2.35,-4.22 4.07,-5.98 1.71,-1.76 3.6,-3.08 5.64,-3.93 2.72,-1.16 5.86,-1.73 9.41,-1.73 6.44,0 11.58,1.99 15.45,5.99 3.86,3.99 5.79,9.54 5.79,16.64 0,7.06 -1.92,12.57 -5.75,16.56 -3.83,3.97 -8.96,5.97 -15.36,5.97 -6.5,0 -11.67,-1.99 -15.5,-5.94 -3.83,-3.97 -5.74,-9.43 -5.74,-16.37zm9.08 -0.3c0,4.94 1.14,8.7 3.42,11.25 2.29,2.55 5.19,3.82 8.7,3.82 3.51,0 6.4,-1.26 8.66,-3.8 2.24,-2.53 3.37,-6.33 3.37,-11.39 0,-5 -1.09,-8.73 -3.28,-11.2 -2.2,-2.47 -5.11,-3.7 -8.75,-3.7 -3.64,0 -6.56,1.26 -8.79,3.75 -2.21,2.49 -3.33,6.24 -3.33,11.27zm38.88 21.86l0 -43.67 8.58 0 17.88 29.16 0 -29.16 8.19 0 0 43.67 -8.85 0 -17.6 -28.48 0 28.48 -8.2 0zm42.62 0l0 -43.67 32.37 0 0 7.4 -23.56 0 0 9.67 21.92 0 0 7.36 -21.92 0 0 11.88 24.4 0 0 7.36 -33.21 0zm37.09 -14.2l8.59 -0.85c0.5,2.89 1.55,5.01 3.14,6.36 1.57,1.34 3.7,2.02 6.38,2.02 2.84,0 4.98,-0.6 6.42,-1.81 1.44,-1.2 2.16,-2.6 2.16,-4.21 0,-1.03 -0.3,-1.91 -0.91,-2.63 -0.6,-0.73 -1.66,-1.36 -3.17,-1.89 -1.03,-0.37 -3.39,-1 -7.06,-1.91 -4.73,-1.17 -8.04,-2.62 -9.94,-4.32 -2.69,-2.4 -4.03,-5.33 -4.03,-8.79 0,-2.23 0.63,-4.3 1.89,-6.24 1.26,-1.93 3.08,-3.41 5.45,-4.42 2.38,-1.01 5.24,-1.52 8.59,-1.52 5.49,0 9.61,1.2 12.39,3.6 2.76,2.41 4.22,5.61 4.36,9.63l-8.82 0.39c-0.37,-2.25 -1.19,-3.87 -2.43,-4.84 -1.24,-0.99 -3.1,-1.48 -5.58,-1.48 -2.56,0 -4.57,0.52 -6.02,1.58 -0.93,0.67 -1.4,1.57 -1.4,2.7 0,1.04 0.44,1.92 1.31,2.66 1.11,0.93 3.81,1.91 8.1,2.91 4.29,1.02 7.47,2.07 9.52,3.15 2.05,1.08 3.66,2.56 4.83,4.44 1.16,1.88 1.74,4.2 1.74,6.95 0,2.5 -0.69,4.85 -2.09,7.03 -1.39,2.18 -3.35,3.81 -5.89,4.87 -2.55,1.07 -5.72,1.6 -9.51,1.6 -5.52,0 -9.76,-1.28 -12.72,-3.83 -2.96,-2.55 -4.73,-6.27 -5.3,-11.15zm41.3 14.2l0 -43.67 8.81 0 0 43.67 -8.81 0zm55.24 0l-9.59 0 -3.82 -9.92 -17.45 0 -3.6 9.92 -9.36 0 17.01 -43.67 9.33 0 17.48 43.67zm-16.23 -17.27l-6.02 -16.21 -5.9 16.21 11.92 0zm48.05 30.11l-5.75 0c-3.03,-4.58 -5.35,-9.35 -6.94,-14.3 -1.58,-4.94 -2.39,-9.73 -2.39,-14.36 0,-5.73 0.99,-11.16 2.96,-16.29 1.7,-4.45 3.87,-8.55 6.49,-12.3l5.72 0c-2.72,6.02 -4.59,11.13 -5.62,15.35 -1.01,4.22 -1.52,8.7 -1.52,13.43 0,3.25 0.29,6.58 0.9,10 0.6,3.42 1.43,6.67 2.49,9.74 0.69,2.03 1.91,4.94 3.66,8.73zm22.09 -12.84l0 -43.67 14.14 0c5.36,0 8.86,0.23 10.49,0.66 2.5,0.66 4.6,2.08 6.29,4.27 1.69,2.2 2.53,5.04 2.53,8.51 0,2.68 -0.48,4.94 -1.46,6.76 -0.98,1.83 -2.21,3.26 -3.71,4.31 -1.5,1.03 -3.02,1.73 -4.57,2.06 -2.1,0.42 -5.15,0.63 -9.15,0.63l-5.74 0 0 16.47 -8.82 0zm8.82 -36.27l0 12.38 4.82 0c3.47,0 5.8,-0.22 6.97,-0.68 1.17,-0.46 2.09,-1.17 2.76,-2.15 0.66,-0.97 0.99,-2.1 0.99,-3.39 0,-1.59 -0.46,-2.9 -1.4,-3.94 -0.92,-1.03 -2.11,-1.68 -3.54,-1.93 -1.06,-0.2 -3.17,-0.29 -6.34,-0.29l-4.26 0zm30.51 36.27l0 -43.67 32.38 0 0 7.4 -23.56 0 0 9.67 21.92 0 0 7.36 -21.92 0 0 11.88 24.39 0 0 7.36 -33.21 0zm39.36 0l0 -43.67 18.56 0c4.67,0 8.06,0.4 10.17,1.18 2.12,0.79 3.81,2.18 5.08,4.18 1.28,2.01 1.91,4.3 1.91,6.88 0,3.28 -0.97,5.99 -2.89,8.13 -1.92,2.12 -4.81,3.48 -8.64,4.03 1.91,1.11 3.48,2.33 4.72,3.67 1.24,1.33 2.91,3.69 5.02,7.08l5.33 8.52 -10.54 0 -6.38 -9.5c-2.26,-3.4 -3.81,-5.53 -4.64,-6.42 -0.83,-0.88 -1.72,-1.48 -2.66,-1.82 -0.93,-0.32 -2.41,-0.49 -4.44,-0.49l-1.78 0 0 18.23 -8.82 0zm8.82 -25.2l6.52 0c4.23,0 6.87,-0.18 7.93,-0.53 1.05,-0.36 1.87,-0.98 2.47,-1.85 0.59,-0.88 0.9,-1.96 0.9,-3.28 0,-1.47 -0.4,-2.65 -1.18,-3.55 -0.79,-0.91 -1.89,-1.48 -3.33,-1.72 -0.71,-0.09 -2.85,-0.14 -6.43,-0.14l-6.88 0 0 11.07zm31.62 11l8.58 -0.85c0.51,2.89 1.56,5.01 3.14,6.36 1.58,1.34 3.7,2.02 6.39,2.02 2.83,0 4.98,-0.6 6.41,-1.81 1.45,-1.2 2.17,-2.6 2.17,-4.21 0,-1.03 -0.31,-1.91 -0.92,-2.63 -0.6,-0.73 -1.65,-1.36 -3.17,-1.89 -1.03,-0.37 -3.38,-1 -7.06,-1.91 -4.72,-1.17 -8.04,-2.62 -9.94,-4.32 -2.68,-2.4 -4.03,-5.33 -4.03,-8.79 0,-2.23 0.63,-4.3 1.9,-6.24 1.26,-1.93 3.08,-3.41 5.44,-4.42 2.38,-1.01 5.24,-1.52 8.6,-1.52 5.49,0 9.61,1.2 12.38,3.6 2.77,2.41 4.22,5.61 4.36,9.63l-8.81 0.39c-0.38,-2.25 -1.19,-3.87 -2.43,-4.84 -1.24,-0.99 -3.1,-1.48 -5.58,-1.48 -2.57,0 -4.58,0.52 -6.02,1.58 -0.94,0.67 -1.41,1.57 -1.41,2.7 0,1.04 0.44,1.92 1.32,2.66 1.1,0.93 3.81,1.91 8.1,2.91 4.29,1.02 7.46,2.07 9.51,3.15 2.06,1.08 3.66,2.56 4.83,4.44 1.16,1.88 1.74,4.2 1.74,6.95 0,2.5 -0.69,4.85 -2.08,7.03 -1.39,2.18 -3.36,3.81 -5.9,4.87 -2.54,1.07 -5.71,1.6 -9.5,1.6 -5.53,0 -9.77,-1.28 -12.72,-3.83 -2.96,-2.55 -4.73,-6.27 -5.3,-11.15zm41.57 14.2l0 -43.67 32.37 0 0 7.4 -23.56 0 0 9.67 21.92 0 0 7.36 -21.92 0 0 11.88 24.39 0 0 7.36 -33.2 0zm39.35 0l0 -43.67 18.57 0c4.66,0 8.05,0.4 10.16,1.18 2.12,0.79 3.82,2.18 5.09,4.18 1.27,2.01 1.9,4.3 1.9,6.88 0,3.28 -0.97,5.99 -2.89,8.13 -1.92,2.12 -4.81,3.48 -8.64,4.03 1.91,1.11 3.49,2.33 4.73,3.67 1.24,1.33 2.91,3.69 5.01,7.08l5.34 8.52 -10.55 0 -6.37 -9.5c-2.27,-3.4 -3.81,-5.53 -4.65,-6.42 -0.83,-0.88 -1.72,-1.48 -2.65,-1.82 -0.94,-0.32 -2.41,-0.49 -4.45,-0.49l-1.77 0 0 18.23 -8.83 0zm8.83 -25.2l6.51 0c4.23,0 6.88,-0.18 7.93,-0.53 1.05,-0.36 1.87,-0.98 2.47,-1.85 0.59,-0.88 0.9,-1.96 0.9,-3.28 0,-1.47 -0.4,-2.65 -1.18,-3.55 -0.78,-0.91 -1.89,-1.48 -3.32,-1.72 -0.72,-0.09 -2.86,-0.14 -6.44,-0.14l-6.87 0 0 11.07zm32.06 3.64c0,-4.46 0.66,-8.19 1.99,-11.21 1,-2.21 2.35,-4.22 4.07,-5.98 1.72,-1.76 3.6,-3.08 5.64,-3.93 2.73,-1.16 5.86,-1.73 9.42,-1.73 6.43,0 11.58,1.99 15.44,5.99 3.86,3.99 5.8,9.54 5.8,16.64 0,7.06 -1.92,12.57 -5.76,16.56 -3.83,3.97 -8.96,5.97 -15.36,5.97 -6.5,0 -11.66,-1.99 -15.5,-5.94 -3.83,-3.97 -5.74,-9.43 -5.74,-16.37zm9.08 -0.3c0,4.94 1.15,8.7 3.42,11.25 2.29,2.55 5.19,3.82 8.71,3.82 3.51,0 6.39,-1.26 8.65,-3.8 2.25,-2.53 3.38,-6.33 3.38,-11.39 0,-5 -1.1,-8.73 -3.29,-11.2 -2.19,-2.47 -5.11,-3.7 -8.74,-3.7 -3.64,0 -6.57,1.26 -8.8,3.75 -2.21,2.49 -3.33,6.24 -3.33,11.27zm53.36 34.7c1.65,-3.53 2.82,-6.25 3.49,-8.13 0.67,-1.89 1.3,-4.07 1.87,-6.53 0.58,-2.46 1.01,-4.8 1.28,-7.01 0.29,-2.21 0.42,-4.49 0.42,-6.8 0,-4.73 -0.5,-9.21 -1.52,-13.43 -1.01,-4.22 -2.87,-9.33 -5.6,-15.35l5.7 0c2.99,4.27 5.32,8.8 6.98,13.58 1.66,4.78 2.49,9.64 2.49,14.57 0,4.15 -0.66,8.6 -1.97,13.35 -1.49,5.31 -3.95,10.57 -7.35,15.75l-5.79 0z"/>
  <path class="fil2" d="M245.65 958.47l0 -116.43 28.83 0 0 51.7 58.27 -51.7 38.78 0 -53.77 45.36 56.7 71.07 -37.31 0 -39.25 -54.65 -23.42 19.47 0 35.18 -28.83 0zm142.03 0l0 -116.43 105.89 0 0 19.71 -77.06 0 0 25.81 71.71 0 0 19.6 -71.71 0 0 31.69 79.79 0 0 19.62 -108.62 0zm131.45 0l0 -116.43 60.73 0c15.26,0 26.34,1.06 33.26,3.15 6.91,2.09 12.47,5.8 16.63,11.14 4.15,5.37 6.22,11.47 6.22,18.35 0,8.73 -3.16,15.97 -9.45,21.66 -6.29,5.67 -15.73,9.27 -28.27,10.74 6.25,2.98 11.41,6.23 15.47,9.78 4.05,3.55 9.51,9.84 16.39,18.9l17.46 22.71 -34.49 0 -20.85 -25.34c-7.42,-9.06 -12.47,-14.75 -15.2,-17.11 -2.73,-2.36 -5.62,-3.96 -8.68,-4.85 -3.06,-0.87 -7.88,-1.3 -14.53,-1.3l-5.83 0 0 48.6 -28.86 0zm28.86 -67.2l21.32 0c13.84,0 22.49,-0.46 25.95,-1.41 3.42,-0.95 6.12,-2.6 8.08,-4.93 1.93,-2.33 2.93,-5.23 2.93,-8.73 0,-3.93 -1.3,-7.07 -3.86,-9.49 -2.56,-2.41 -6.19,-3.93 -10.88,-4.58 -2.32,-0.24 -9.34,-0.38 -21.05,-0.38l-22.49 0 0 29.52zm113.46 67.2l0 -116.43 105.9 0 0 19.71 -77.06 0 0 25.81 71.7 0 0 19.6 -71.7 0 0 31.69 79.79 0 0 19.62 -108.63 0zm163.51 0l0 -96.72 -42.37 0 0 -19.71 113.52 0 0 19.71 -42.28 0 0 96.72 -28.87 0zm202.06 0l-31.39 0 -12.48 -26.45 -57.1 0 -11.78 26.45 -30.59 0 55.64 -116.43 30.5 0 57.2 116.43zm-53.11 -46.05l-19.69 -43.21 -19.29 43.21 38.98 0zm236.12 46.05l-31.4 0 -12.47 -26.45 -57.11 0 -11.77 26.45 -30.6 0 55.64 -116.43 30.5 0 57.21 116.43zm-53.12 -46.05l-19.69 -43.21 -19.29 43.21 38.98 0zm66.69 46.05l0 -116.43 46.27 0c17.53,0 28.97,0.6 34.29,1.77 8.18,1.73 15.07,5.53 20.59,11.38 5.52,5.86 8.28,13.42 8.28,22.66 0,7.16 -1.6,13.18 -4.79,18.03 -3.19,4.88 -7.22,8.7 -12.14,11.49 -4.89,2.77 -9.88,4.61 -14.93,5.51 -6.89,1.11 -16.87,1.68 -29.94,1.68l-18.79 0 0 43.91 -28.84 0zm28.84 -96.72l0 33.02 15.77 0c11.37,0 18.99,-0.6 22.81,-1.82 3.83,-1.22 6.82,-3.11 9.01,-5.72 2.17,-2.6 3.26,-5.61 3.26,-9.05 0,-4.23 -1.52,-7.73 -4.59,-10.49 -3.02,-2.74 -6.91,-4.47 -11.57,-5.15 -3.46,-0.54 -10.38,-0.79 -20.75,-0.79l-13.94 0zm101.65 96.72l0 -116.43 28.84 0 0 116.43 -28.84 0z"/>
 </g>
</svg>
