<svg height="427pt" viewBox="-107 0 427 427.55083" width="427pt" xmlns="http://www.w3.org/2000/svg"><path d="m90.941406 427.550781h-74.664062c-8.832032 0-16-7.167969-16-16s7.167968-16 16-16h74.664062c8.832032 0 16 7.167969 16 16s-7.167968 16-16 16zm0 0"/><path d="m197.609375 32.007812h-74.667969c-8.832031 0-16-7.167968-16-16 0-8.832031 7.167969-15.9999995 16-15.9999995h74.667969c8.832031 0 16 7.1679685 16 15.9999995 0 8.832032-7.167969 16-16 16zm0 0"/><path d="m53.609375 427.550781c-1.367187 0-2.773437-.171875-4.183594-.535156-8.53125-2.300781-13.585937-11.089844-11.285156-19.625l106.667969-395.542969c2.28125-8.53125 11.070312-13.609375 19.605468-11.285156 8.535157 2.304688 13.589844 11.09375 11.285157 19.628906l-106.667969 395.539063c-1.898438 7.128906-8.359375 11.820312-15.421875 11.820312zm0 0"/></svg>